<svg width="25" height="39" viewBox="0 0 25 39" fill="none" xmlns="http://www.w3.org/2000/svg">
<path d="M19.9894 11.624L22.6145 9.11468L24.4999 11L21.8747 13.5093C23.5719 15.6334 24.4975 18.271 24.4997 20.9899C24.502 23.7089 23.5808 26.348 21.8871 28.4749C20.1935 30.6019 17.8277 32.0906 15.1773 32.6973C12.5269 33.304 9.74911 32.9926 7.29886 31.8141C4.8486 30.6357 2.87116 28.66 1.69048 26.2109C0.509799 23.7617 0.195853 20.9841 0.800074 18.3332C1.40429 15.6822 2.89087 13.3151 5.01627 11.6194C7.14167 9.92379 9.77992 9.00021 12.4988 8.99997C15.3321 8.99997 17.9361 9.9813 19.9894 11.624ZM12.4988 30.3332C13.7245 30.3332 14.9381 30.0918 16.0705 29.6227C17.2028 29.1537 18.2317 28.4662 19.0984 27.5995C19.9651 26.7328 20.6526 25.704 21.1216 24.5716C21.5906 23.4392 21.832 22.2256 21.832 20.9999C21.832 19.7742 21.5906 18.5606 21.1216 17.4282C20.6526 16.2958 19.9651 15.267 19.0984 14.4003C18.2317 13.5336 17.2028 12.8461 16.0705 12.3771C14.9381 11.908 13.7245 11.6666 12.4988 11.6666C10.0235 11.6666 7.64956 12.6499 5.89924 14.4003C4.14893 16.1506 3.16561 18.5246 3.16561 20.9999C3.16561 23.4752 4.14893 25.8492 5.89924 27.5995C7.64956 29.3498 10.0235 30.3332 12.4988 30.3332ZM11.1655 15.3333H13.8321V23.3332H11.1655V15.3333ZM7.16556 4H17.8321V6.66665H7.16556V4Z" fill="#1A1A1A" stroke="#1A1A1A" stroke-width="0.6"/>
</svg>
