<svg width="80" height="135" viewBox="0 0 80 135" fill="none" xmlns="http://www.w3.org/2000/svg">
<mask id="path-1-outside-1_308_1340" maskUnits="userSpaceOnUse" x="-6.65805" y="-6.15857" width="91.9563" height="91.9563" fill="black">
<rect fill="white" x="-6.65805" y="-6.15857" width="91.9563" height="91.9563"/>
<path d="M19.91 19.9098C15.9722 23.8476 13.2905 28.8646 12.2041 34.3265C11.1177 39.7883 11.6753 45.4497 13.8064 50.5947C15.9375 55.7397 19.5464 60.1371 24.1768 63.231C28.8071 66.3249 34.2509 67.9763 39.8198 67.9763C45.3887 67.9763 50.8325 66.3249 55.4628 63.231C60.0932 60.1371 63.7021 55.7397 65.8332 50.5947C67.9643 45.4497 68.5219 39.7884 67.4355 34.3265C66.3491 28.8646 63.6674 23.8476 59.7296 19.9098L39.8198 39.8196L19.91 19.9098Z"/>
</mask>
<path d="M19.91 19.9098C15.9722 23.8476 13.2905 28.8646 12.2041 34.3265C11.1177 39.7883 11.6753 45.4497 13.8064 50.5947C15.9375 55.7397 19.5464 60.1371 24.1768 63.231C28.8071 66.3249 34.2509 67.9763 39.8198 67.9763C45.3887 67.9763 50.8325 66.3249 55.4628 63.231C60.0932 60.1371 63.7021 55.7397 65.8332 50.5947C67.9643 45.4497 68.5219 39.7884 67.4355 34.3265C66.3491 28.8646 63.6674 23.8476 59.7296 19.9098L39.8198 39.8196L19.91 19.9098Z" stroke="#FF6338" stroke-width="8" mask="url(#path-1-outside-1_308_1340)"/>
<circle cx="40.8204" cy="102.842" r="30.1567" stroke="#FF6338" stroke-width="4"/>
</svg>
