<svg width="122" height="63" viewBox="0 0 122 63" fill="none" xmlns="http://www.w3.org/2000/svg">
<path d="M84.3457 30.2709V32.2791H88.3621V30.2709H84.3457ZM114.617 4.01646C115.726 4.01646 116.625 3.11735 116.625 2.00823C116.625 0.899115 115.726 0 114.617 0V4.01646ZM86.3539 30.2709H88.3621C88.3621 15.771 100.117 4.01646 114.617 4.01646V2.00823V0C97.8984 0 84.3457 13.5527 84.3457 30.2709H86.3539Z" fill="#FF6338"/>
<path d="M18.0738 58.386C16.9647 58.386 16.0655 59.2851 16.0655 60.3942C16.0655 61.5034 16.9647 62.4025 18.0738 62.4025V58.386ZM46.3364 32.1316H44.3282C44.3282 46.6315 32.5737 58.386 18.0738 58.386V60.3942V62.4025C34.7919 62.4025 48.3446 48.8498 48.3446 32.1316H46.3364Z" fill="#FF6338"/>
<path d="M2.00823 32.1317H119.992" stroke="#FF6338" stroke-width="4" stroke-linecap="round" stroke-linejoin="round"/>
</svg>
