<svg xmlns="http://www.w3.org/2000/svg" width="122" height="63" fill="none" viewBox="0 0 122 63"><path fill="#ff6338" d="M84.346 30.27v2.01h4.016v-2.01zm30.271-26.254a2.008 2.008 0 0 0 0-4.016zM86.354 30.271h2.008c0-14.5 11.755-26.255 26.255-26.255V0C97.898 0 84.346 13.553 84.346 30.27zm-68.28 28.115a2.008 2.008 0 1 0 0 4.017zm28.262-26.254h-2.008c0 14.5-11.754 26.254-26.254 26.254v4.017c16.718 0 30.27-13.553 30.27-30.271z"/><path stroke="#ff6338" stroke-linecap="round" stroke-linejoin="round" stroke-width="4" d="M2.008 32.132h117.984"/></svg>