<svg width="110" height="43" viewBox="0 0 110 43" fill="none" xmlns="http://www.w3.org/2000/svg">
<path d="M0 2.00127C7.26518 2.00127 14.4032 2.27323 21.3122 4.69139C27.3965 6.8209 33.9012 8.13917 39.9807 10.3499C44.3657 11.9445 49.1108 12.3818 53.4081 14.3155C57.1523 16.0004 61.5834 16.9025 65.0266 19.116C67.0858 20.4397 69.6636 20.6466 71.636 22.1076C74.195 24.0032 76.5668 25.2812 79.3353 26.8385C81.5851 28.104 83.8384 29.369 85.991 30.8041C87.6498 31.91 89.9727 32.7789 91.4176 34.1435C93.1894 35.8169 96.6365 36.4099 98.9314 37.0656C102.54 38.0966 105.883 39.661 109.367 40.8225" stroke="#1A1A1A" stroke-width="4" stroke-linejoin="round"/>
</svg>
