<svg width="347" height="338" viewBox="0 0 347 338" fill="none" xmlns="http://www.w3.org/2000/svg">
<path d="M164.734 151.564C169.055 151.564 172.635 149.22 175.529 145.948C180.337 140.512 186.582 136.006 191.003 130.224C193.371 127.127 194.905 123.321 198.428 121.364C201.155 119.849 204.739 120.972 207.694 119.835C209.418 119.172 211.739 119.404 213.591 118.993C215.988 118.46 218.549 118.239 220.891 117.589C226.693 115.977 231.94 114.474 237.614 112.254C241.718 110.648 246.162 108.323 250.655 108.323C253.045 108.323 257.284 109.157 257.924 112.035C260.209 122.319 254.559 133.686 251.778 143.265C250.409 147.98 248.902 153.507 246.162 157.616C244.431 160.213 242.264 162.417 240.546 165.041C237.891 169.099 235.972 173.629 233.807 177.958C230.206 185.161 227.739 192.982 224.822 200.483C223.228 204.582 221.929 209.06 220.642 213.274C219.473 217.099 219.125 221.54 217.397 225.13C214.033 232.118 210.92 239.109 206.977 245.783C204.978 249.165 203.138 252.58 201.798 256.266C200.688 259.318 200.228 259.385 197.025 259.385C194.002 259.385 188.009 261.139 185.731 263.067C178.808 268.925 173.671 277.807 176.964 287.027C179.8 294.968 190.097 300.767 198.21 301.472C204.751 302.041 211.566 301.503 218.146 301.503C223.829 301.503 228.814 298.94 233.807 296.324C237.331 294.479 239.197 290.569 240.671 287.09C242.556 282.64 243.786 278.535 243.323 273.674C243.136 271.713 241.909 269.507 241.389 267.528C240.941 265.826 240.71 264.162 240.266 262.474C239.061 257.895 241.336 255.613 244.477 252.647C245.787 251.41 247.632 250.388 249.095 249.277C251.568 247.397 253.446 243.72 255.709 241.415C260.012 237.03 261.332 231.738 264.944 227.095C266.541 225.041 267.269 221.273 268.375 218.859C270.095 215.108 271.477 211.213 273.117 207.44C276.175 200.407 276.254 192.445 278.172 185.133C280.344 176.852 282.85 168.233 283.912 159.738C284.622 154.061 284.991 148.446 285.597 142.766C286.208 137.035 286.598 130.773 287.843 125.17C288.082 124.093 288.139 121.063 288.966 122.924C290.098 125.471 291.794 127.706 293.053 130.224C296.472 137.061 299.602 145.268 300.042 152.968C300.354 158.431 300.634 163.832 300.634 169.316C300.634 173.641 301.366 178.719 300.385 182.949C299.212 188.009 298.122 192.648 295.83 197.363C293.878 201.378 291.576 205.938 290.214 210.154C287.306 219.157 283.879 227.968 279.919 236.548C278.015 240.672 274.802 247.163 274.802 251.773C274.802 255.82 273.513 260.649 272.681 264.627C272.006 267.851 271.291 271.091 270.746 274.361C270.163 277.862 269.463 284.268 266.691 286.902C264.774 288.723 261.68 288.425 259.328 289.149C255.793 290.236 252.654 290.581 249.875 293.361C244.067 299.168 242.231 308.12 242.231 315.886C242.231 326.519 246.582 333.671 257.643 335.073C269.187 336.536 282.483 335.407 293.833 333.263C299.386 332.214 305.554 332.256 310.556 329.332C316.654 325.767 320.885 319.391 324.72 313.639C329.496 306.475 328.713 296.562 328.713 288.306C328.713 284.48 327.481 278.587 330.398 275.671C335.069 271 336.697 264.893 338.541 258.543C341.443 248.546 340.506 237.843 340.506 227.563C340.506 221.223 339.98 214.654 340.631 208.345C341.379 201.091 344.352 194.239 344.437 186.943C344.588 173.991 344.999 161.072 344.999 148.101C344.999 136.187 344.507 122.054 339.352 111.099C330.813 92.9545 321.933 74.3182 308.496 59.154C304.715 54.8863 300.257 51.3365 296.017 47.5482C289.584 41.8003 283.421 35.7555 275.676 31.7618C269.007 28.3234 261.758 27.7873 255.272 24.2118C246.197 19.209 235.106 17.5962 225.353 14.2595C217.945 11.7254 210.307 10.5692 202.671 8.92459C194.342 7.13055 186.08 5.27918 177.619 4.18243C156.377 1.42879 134.777 1.91312 113.444 2.30818C100.599 2.54604 87.7297 7.31165 74.8828 7.31165C62.1721 7.31165 49.2372 11.543 36.6647 13.7191C27.3011 15.3397 19.3064 18.6059 10.2732 21.6169C7.03675 22.6958 3.89504 23.899 0.632886 24.9864" stroke="#1A1A1A" stroke-width="4" stroke-linejoin="round"/>
</svg>
