<svg width="101" height="167" viewBox="0 0 101 167" fill="none" xmlns="http://www.w3.org/2000/svg">
<path d="M2.00083 154.32C2.00083 148.967 5.26101 143.867 7.24068 139.037C8.58494 135.757 9.6533 132.569 11.4201 129.493C13.2599 126.29 14.631 121.973 15.5995 118.39C17.7862 110.299 20.1092 101.829 23.3345 94.124C26.193 87.2954 30.8033 80.9666 34.6876 74.724C37.9517 69.4781 41.5263 65.0353 44.1068 59.3163C47.0285 52.8413 51.1155 46.8364 53.3701 40.0723C55.9996 32.1839 58.8704 23.4747 59.7952 15.1518C60.2027 11.4844 59.8264 7.55486 59.8264 3.86118C59.8264 0.614449 60.5687 2.39214 62.6335 3.42452C64.4112 4.31338 65.9253 5.50634 67.8109 6.23159C73.1693 8.29248 76.9972 8.9139 82.8132 8.9139C87.565 8.9139 93.2895 9.37186 97.6906 10.6293C100.01 11.2921 98.6052 26.1215 98.2832 27.4093C96.4516 34.7359 96.2838 42.6432 95.7257 50.1778C95.3767 54.8886 95.1954 59.4955 95.1954 64.2443C95.1954 66.4521 95.2257 68.5098 94.7588 70.6694C94.4592 72.0549 95.0829 73.8701 94.5093 75.1607C93.6484 77.0977 93.7612 79.3703 92.825 81.3362C90.7355 85.7242 88.5182 91.0481 87.4604 95.8082C86.4272 100.458 84.5186 104.888 83.5305 109.532C81.6856 118.203 80.9096 126.901 76.1386 134.608C72.4967 140.491 68.3772 144.322 67.655 151.544C67.1533 156.561 63.1949 161.207 63.1949 166.11" stroke="#1A1A1A" stroke-width="4" stroke-linejoin="round"/>
</svg>
