<svg width="11" height="13" viewBox="0 0 11 13" fill="none" xmlns="http://www.w3.org/2000/svg">
<path d="M7.28007 2.45317C6.2421 2.45317 5.2853 2.42849 4.2818 2.74208C3.63873 2.94304 3.24031 3.51923 2.83082 4.01972C2.36714 4.58643 2.40216 5.40731 2.25299 6.09347C2.11327 6.73618 1.91641 7.54635 2.19521 8.17364C2.70056 9.31067 3.40222 10.5427 4.85321 10.5427C5.62061 10.5427 6.21326 10.509 6.81781 9.9649C7.27732 9.55134 7.66028 9.14626 8.08903 8.69368C8.97133 7.76236 9.02358 5.95263 8.89157 4.76447C8.74325 3.42962 7.01951 2.32933 5.82909 2.11289C2.64865 1.53463 2.56646 5.31854 3.11973 7.53161C3.29 8.21269 4.11339 9.19895 4.73764 9.50264C5.87929 10.058 7.02413 9.06437 7.5112 8.11586C7.93973 7.28136 8.72044 5.16475 7.94778 4.39209C7.54711 3.99142 6.1001 3.35886 5.66216 3.98119C5.15388 4.7035 4.96877 5.52023 4.96877 6.38238C4.96877 7.30484 4.90446 7.88545 6.00886 7.76274C6.99968 7.65265 7.82531 5.60821 7.96704 4.82867C8.03114 4.47613 7.79563 4.33996 7.48552 4.27653C6.6393 4.10344 5.94603 4.18868 5.34115 4.86077C5.07937 5.15164 4.67869 7.02488 5.11002 7.3069C6.33485 8.10776 7.4314 5.85607 7.60109 4.96992C7.65755 4.67505 7.76283 4.07108 7.33144 4.07108C6.74344 4.07108 6.52986 4.7876 6.35555 5.25241C6.11573 5.89193 5.88077 7.95863 6.81781 6.49795C7.00535 6.2056 7.48612 5.39002 6.81781 5.46428C6.23668 5.52885 5.91203 6.00544 5.80341 6.53647C5.56284 7.71256 6.7611 6.46938 6.9077 5.9458C6.98666 5.6638 6.3891 6.0026 6.36197 6.38238C6.35343 6.50205 6.31812 7.66297 6.58668 7.13998C6.72749 6.86578 7.17273 5.94118 6.86918 5.63763C6.51332 5.28178 6.48381 6.15263 6.47112 6.26682" stroke="#1A1A1A" stroke-width="4" stroke-linejoin="round"/>
</svg>
