<svg width="120" height="33" viewBox="0 0 120 33" fill="none" xmlns="http://www.w3.org/2000/svg">
<path d="M0 13.7365C5.14931 13.7365 9.77652 10.8789 14.2416 8.7101C19.8851 5.96895 25.875 2.00817 32.4392 2.00817C34.1621 2.00817 35.3848 2.81382 36.8606 3.59057C39.738 5.10499 43.1112 5.95898 46.0758 7.36041C49.7955 9.11882 54.123 9.71703 58.0136 11.0139C62.3078 12.4453 66.6612 13.1336 70.9753 14.3416C72.6426 14.8084 74.2529 15.4622 75.8156 16.1567C78.3389 17.2782 81.5192 17.3311 84.193 17.9253C89.2208 19.0425 94.5243 19.6007 99.6912 19.6007C107.894 19.6007 112.252 27.1368 118.54 31.3291" stroke="#1A1A1A" stroke-width="4" stroke-linejoin="round"/>
</svg>
