<svg width="21" height="20" viewBox="0 0 21 20" fill="none" xmlns="http://www.w3.org/2000/svg">
<path d="M11.8316 4.81422C11.7799 4.40054 9.88958 4.60995 9.47115 4.60995C7.99283 4.60995 6.80679 5.0043 5.51054 5.73345C3.38507 6.92902 3.45646 10.6526 3.45646 12.6787C3.45646 14.8692 3.89107 16.339 6.06661 17.116C7.63588 17.6764 9.49291 18.2368 11.2188 17.8423C12.739 17.4948 13.8109 16.5696 14.9979 15.6407C16.3144 14.6103 17.7427 13.5446 18.2549 11.8616C18.7279 10.3073 18.5726 8.67247 18.5726 7.06122C18.5726 5.18849 16.6522 3.91137 15.3156 2.97577C14.3538 2.30251 12.9802 2.15868 11.8316 2.15868C10.879 2.15868 9.23534 1.83509 8.359 2.20407C7.15898 2.70935 6.16106 3.7438 5.29491 4.60995C3.49688 6.40798 2.02656 8.78868 2.02656 11.4531C2.02656 14.6475 5.53353 16.137 8.10933 17.0252C9.25559 17.4204 11.0871 17.4831 12.2175 17.0592C14.1688 16.3275 15.2007 14.3269 16.1214 12.5879C17.516 9.95365 19.9155 4.98635 16.1214 3.08925C14.7321 2.39464 12.5579 2.7715 11.0145 2.7715C9.90711 2.7715 9.02177 3.07917 8.47249 4.09927C7.84022 5.27347 7.31883 6.44289 7.13337 7.78752C6.89466 9.51813 6.12305 11.2418 6.82696 12.9624C8.94217 18.1329 19.3423 12.1651 15.7128 6.90234C14.9469 5.79177 13.2226 5.02225 11.9224 4.81422C9.70083 4.45877 8.41784 4.57254 7.22415 6.48244C5.91782 8.57258 5.38702 9.89067 5.51054 12.3609C5.59065 13.9633 6.32908 15.2321 8.08664 15.2321C10.2105 15.2321 11.5246 15.0622 13.1481 13.666C14.3152 12.6623 15.1 11.5253 15.1 9.98912C15.1 7.83829 14.6707 6.49893 12.1948 6.4484C11.101 6.42608 10.5035 6.30912 9.77756 7.1747C9.00593 8.09472 8.25596 9.02526 7.74618 10.1253C7.28341 11.1239 7.29285 13.5605 8.26821 14.2108C9.88429 15.2881 12.0612 14.3657 13.0573 12.8716C13.6809 11.9362 13.6895 10.9227 13.5112 9.85294C13.3242 8.73073 11.8948 8.21874 10.8897 7.99179C8.37272 7.42344 7.33764 9.65693 7.33764 11.873C7.33764 12.6558 7.22712 12.9981 7.9618 13.3937C8.82695 13.8595 10.4164 14.2665 11.2188 13.5071C12.1319 12.6429 12.4444 11.2101 12.4444 10.0118C12.4444 8.18466 11.4156 8.49112 9.8343 8.49112C8.31143 8.49112 7.33643 8.45754 7.15606 10.2161C7.10696 10.6949 6.86165 12.4807 7.38303 12.7808C9.16721 13.8081 11.4783 12.5422 12.6487 11.2715C13.1246 10.7548 16.4138 6.92297 14.3283 6.69807C12.9666 6.55122 10.3054 6.37283 9.26688 7.51516C8.71333 8.12406 8.944 9.58545 8.98317 10.3296C9.13492 13.2128 13.7334 11.6285 12.2061 9.43305C11.2886 8.11415 9.62791 9.29299 9.06261 10.2388C8.77688 10.7168 7.70876 13.0283 8.86968 13.0646C9.88575 13.0963 12.4856 12.6145 11.9905 10.9878C11.6083 9.73192 8.74936 10.0126 8.22282 11.0218C7.3726 12.6514 13.8258 12.7702 12.3083 10.4658C11.6351 9.44351 11.0555 11.0074 11.2415 11.612C11.3837 12.0741 12.2397 11.1605 11.9451 10.6927C11.4172 9.85432 10.5601 10.5959 10.6173 11.3396C10.699 12.4006 11.6134 11.7415 11.8316 11.1013C12.297 9.73607 10.1888 10.2413 9.74351 10.9537C9.19718 11.8279 9.89265 12.8144 10.8784 12.4858C12.4702 11.9552 12.0623 9.72972 10.7535 9.16068C10.2817 8.95553 6.73529 8.80999 7.88237 10.2161C9.14717 11.7665 11.9693 10.66 12.5806 9.10394C12.8365 8.45262 12.9523 7.63357 12.3877 7.10661C11.8252 6.58162 10.9582 6.62778 10.6968 7.42437C10.3694 8.42202 10.4622 10.9774 11.9451 11.0672C13.1378 11.1395 14.3276 9.06933 12.9892 8.44573C12.2409 8.09711 11.0268 7.79797 10.2201 8.12797C8.66906 8.76251 11.2813 10.8901 12.2515 10.8062C12.5681 10.7788 14.3455 9.67237 13.3523 9.30821C12.4066 8.96143 11.6232 9.87309 11.0145 10.3296" stroke="#1A1A1A" stroke-width="4" stroke-linejoin="round"/>
</svg>
