<svg width="113" height="29" viewBox="0 0 113 29" fill="none" xmlns="http://www.w3.org/2000/svg">
<path d="M113 2.6005C107.161 2.6005 101.188 1.61914 95.3485 2.20305C93.4598 2.39192 91.1412 3.20143 89.2464 3.65258C87.3751 4.09812 85.3109 4.61217 83.5418 5.3359C81.1443 6.31669 78.5122 7.07032 76.224 8.28172C74.7444 9.06504 73.5815 10.0184 71.9923 10.5963C68.2179 11.9688 63.8241 10.5814 59.9986 10.1988C55.7948 9.77847 50.5174 8.94478 46.6021 11.1106C41.413 13.9812 36.6307 16.6128 30.8443 17.8439C28.2937 18.3866 25.6728 19.2922 23.2694 20.2754C20.9995 21.204 18.5669 21.4149 16.2088 22.0523C10.9788 23.4658 5.77077 25.2978 0.638003 27.0087" stroke="#1A1A1A" stroke-width="4" stroke-linejoin="round"/>
</svg>
