<svg width="109" height="240" viewBox="0 0 109 240" fill="none" xmlns="http://www.w3.org/2000/svg">
<path d="M107.012 0.22085C106.777 2.33936 104.771 6.04942 104.198 8.11121C103.361 11.1246 101.831 14.417 100.675 17.3718C99.5881 20.1486 97.5713 22.3698 96.4654 25.0733C94.8841 28.9386 93.0308 32.8762 90.8529 36.4541C89.2442 39.097 87.7714 41.9905 86.6436 44.8727C85.1587 48.6675 82.7891 51.8696 80.7505 55.3805C74.4965 66.1513 69.4152 77.366 61.7929 87.2467C60.2003 89.3113 59.4171 91.581 58.0513 93.6699C55.8103 97.0972 52.9628 100.11 50.7239 103.554C45.5696 111.484 40.534 119.509 35.2897 127.376C23.4228 145.176 9.4758 163.402 5.41899 184.903C3.95134 192.682 0.832375 200.041 2.45686 208.164C3.86117 215.185 7.5814 221.823 13.9624 225.594C17.0445 227.415 19.1473 230.15 22.3811 231.767C25.8322 233.493 29.0628 235.537 32.92 236.413C39.0804 237.813 44.7814 238.416 50.8798 235.977C58.9691 232.741 65.9194 229.176 71.1782 221.946C74.4435 217.456 74.6417 210.487 74.5768 205.233C74.5108 199.881 71.8452 197.018 68.1225 193.571C60.4074 186.428 50.3799 184.903 40.2162 184.903C35.7806 184.903 30.6835 184.202 26.3409 185.215C24.4911 185.647 22.572 187.148 20.6973 187.148" stroke="#1A1A1A" stroke-width="4" stroke-linejoin="round"/>
</svg>
