<svg width="263" height="42" viewBox="0 0 263 42" fill="none" xmlns="http://www.w3.org/2000/svg">
<path d="M2.80193 36.2901C2.68893 37.194 1.22823 36.8023 2.55216 35.4783C4.16416 33.8663 6.31925 32.0958 8.14076 30.6703C10.7355 28.6396 13.6533 25.9028 16.8515 24.9256C18.8275 24.3218 21.379 23.2949 23.1582 22.2405C27.8036 19.4877 33.7686 18.253 38.7688 16.3085C44.5579 14.0572 50.6063 12.5497 56.5025 10.7199C66.9735 7.47028 77.567 4.04176 88.6604 3.69509C95.2729 3.48845 101.889 2.00914 108.455 2.00914C111.827 2.00914 115.198 2.00914 118.57 2.00914C125.177 2.00914 132.655 1.83892 139.052 3.38288C144.411 4.67652 150.086 4.499 155.536 4.94394C158.778 5.20855 162.207 5.11968 165.402 5.69325C167.035 5.98639 168.488 7.00553 170.148 7.06699C172.753 7.16347 176.689 7.75933 178.984 9.03393C183.051 11.2935 188.506 10.899 192.752 12.6868C197.197 14.5583 202.422 14.5597 206.802 16.6207C211.418 18.7933 216.279 19.5506 220.57 22.5215C225.3 25.7963 230.249 28.5908 235.494 30.9513C243.574 34.5874 254.082 39.662 263 39.662" stroke="#1A1A1A" stroke-width="4" stroke-linejoin="round"/>
</svg>
