<svg width="11" height="13" viewBox="0 0 11 13" fill="none" xmlns="http://www.w3.org/2000/svg">
<path d="M5.6512 2.15994C5.31053 1.93283 4.64331 2.0464 4.23198 2.0464C3.69333 2.0464 3.32325 2.73504 3.03984 3.09347C2.11238 4.26643 2.01801 5.45598 2.01801 6.90328C2.01801 7.49667 2.34513 8.24825 2.64877 8.74511C2.91614 9.18262 3.45416 10.1097 3.97337 10.3094C5.49457 10.8945 6.48077 10.6772 7.80841 9.82372C8.49711 9.38098 8.7881 8.22112 8.91856 7.47097C9.02051 6.88472 8.99345 6.14588 8.88071 5.56606C8.83519 5.33194 8.78793 4.45877 8.5401 4.31715C7.48547 3.71451 6.63156 2.15994 5.25382 2.15994C4.93441 2.15994 4.34157 2.04523 4.06168 2.18517C3.53264 2.44969 3.36794 3.12468 3.21015 3.62962C2.9931 4.32416 3.15338 5.27947 3.15338 5.99498C3.15338 6.92517 3.36889 7.79957 4.03645 8.49281C5.90603 10.4343 8.43432 6.35402 8.01026 4.65776C7.76668 3.68346 5.57124 3.43666 4.7429 3.5287C3.88972 3.6235 3.51315 5.42496 3.49399 6.13375C3.46878 7.06674 4.62305 8.39889 5.6512 8.28465C6.08187 8.2368 7.15582 6.2553 6.73612 6.04544C6.35346 5.85411 4.17522 5.30535 4.17522 5.96344C4.17522 6.70437 5.03528 6.90638 5.64489 6.63205C6.24088 6.36386 6.73897 4.08219 6.19366 4.29192C5.72924 4.47055 5.19413 5.89114 5.61336 6.31036C5.97578 6.67279 6.43372 6.83915 6.90011 7.01682C7.2737 7.15914 6.9474 6.22313 6.87488 6.13375C6.47442 5.64016 5.73323 5.22545 5.08982 5.22545C4.7162 5.22545 4.85644 5.68303 4.85644 5.96975C4.85644 6.32367 4.75121 6.82497 5.10875 7.04205C5.84296 7.48782 6.54395 6.1097 6.76135 5.59129C7.27801 4.35924 5.19705 4.56963 5.19705 4.94161C5.19705 5.65832 6.31334 6.06182 6.76135 5.45253C7.14333 4.93303 6.15481 5.21519 5.96658 5.27591C5.43452 5.44754 4.85644 6.001 4.85644 6.5879" stroke="#1A1A1A" stroke-width="4" stroke-linejoin="round"/>
</svg>
