<svg width="113" height="197" viewBox="0 0 113 197" fill="none" xmlns="http://www.w3.org/2000/svg">
<path d="M42.5367 153.221C39.5449 153.221 36.5531 153.221 33.5612 153.221C30.2752 153.221 27.3303 152.095 24.2104 152.095C15.9292 152.095 8.78461 156.216 6.07177 164.354C5.03897 167.453 3.13206 170.093 3.13206 173.517C3.13206 177.039 2.00621 180.355 2.00621 183.9C2.00621 191.356 13.4043 191.093 18.331 192.188C34.7738 195.842 51.6589 194.877 68.5563 194.877C74.2381 194.877 82.5985 192.469 86.695 188.372C88.9861 186.081 88.6965 181.689 88.6965 178.803C88.6965 174.517 88.1336 169.862 88.1336 165.887C88.1336 164.746 87.5707 163.736 87.5707 162.509C87.5707 161.052 88.896 159.731 89.3845 158.412C89.9756 156.816 91.2865 154.837 92.3242 153.502C93.297 152.252 93.5161 150.163 94.2007 148.718C97.4083 141.946 99.4528 136.2 101.112 128.734C101.756 125.837 100.956 122.416 101.769 119.571C102.52 116.94 101.902 114.282 102.238 111.596C102.51 109.419 103.254 107.133 103.333 104.935C103.473 101.013 103.895 97.2207 103.895 93.2382C103.895 89.2015 105.021 85.4822 105.021 81.4481C105.021 77.5598 105.021 73.6714 105.021 69.7831C105.021 66.7237 105.787 62.5459 104.896 59.6505C102.509 51.8936 104.714 43.3589 103.864 35.2883C102.975 26.8437 103.333 18.7025 103.333 10.2382C103.333 9.11212 103.055 7.58532 103.614 6.57923C104.428 5.11379 104.513 5.69113 105.709 4.73409C107.189 3.55046 110.077 2.64426 111.776 1.79437" stroke="#1A1A1A" stroke-width="4" stroke-linejoin="round"/>
</svg>
